<svg width="29" height="34" viewBox="0 0 29 34" fill="none" xmlns="http://www.w3.org/2000/svg">
<g clip-path="url(#clip0_41_70)">
<path d="M21.75 4.25H7.24999C6.52014 4.25507 5.8086 4.51831 5.20846 5.00529C4.60832 5.49227 4.14754 6.1803 3.88641 6.97936C3.62528 7.77842 3.57596 8.65128 3.74491 9.48373C3.91387 10.3162 4.29322 11.0695 4.83332 11.645V25.5C4.83332 26.6272 5.21524 27.7082 5.89506 28.5052C6.57488 29.3022 7.49692 29.75 8.45832 29.75H20.5417C21.5031 29.75 22.4251 29.3022 23.1049 28.5052C23.7847 27.7082 24.1667 26.6272 24.1667 25.5V11.645C24.7068 11.0695 25.0861 10.3162 25.2551 9.48373C25.424 8.65128 25.3747 7.77842 25.1136 6.97936C24.8524 6.1803 24.3917 5.49227 23.7915 5.00529C23.1914 4.51831 22.4798 4.25507 21.75 4.25ZM18.125 18.6008C18.125 18.9277 18.0142 19.2412 17.8171 19.4723C17.6199 19.7035 17.3526 19.8333 17.0737 19.8333H11.9262C11.6474 19.8333 11.38 19.7035 11.1829 19.4723C10.9857 19.2412 10.875 18.9277 10.875 18.6008V18.2325C10.875 17.9056 10.9857 17.5921 11.1829 17.361C11.38 17.1299 11.6474 17 11.9262 17H17.0737C17.3526 17 17.6199 17.1299 17.8171 17.361C18.0142 17.5921 18.125 17.9056 18.125 18.2325V18.6008ZM21.75 9.91667H7.24999C6.92952 9.91667 6.62218 9.76741 6.39557 9.50173C6.16896 9.23606 6.04166 8.87572 6.04166 8.5C6.04166 8.12428 6.16896 7.76394 6.39557 7.49827C6.62218 7.23259 6.92952 7.08333 7.24999 7.08333H21.75C22.0705 7.08333 22.3778 7.23259 22.6044 7.49827C22.831 7.76394 22.9583 8.12428 22.9583 8.5C22.9583 8.87572 22.831 9.23606 22.6044 9.50173C22.3778 9.76741 22.0705 9.91667 21.75 9.91667Z" fill="#FC8329"/>
</g>
<defs>
<clipPath id="clip0_41_70">
<rect width="29" height="34" fill="white"/>
</clipPath>
</defs>
</svg>
