<svg width="23" height="23" viewBox="0 0 23 23" fill="none" xmlns="http://www.w3.org/2000/svg">
<g clip-path="url(#clip0_12_321)">
<path d="M19.1978 0.675622C18.7738 0.251538 18.0981 0.251538 17.6741 0.675622L9.48752 8.86216C9.35815 8.98437 9.2719 9.14248 9.21439 9.31497L7.87752 13.7784C7.7625 14.1594 7.87033 14.569 8.15065 14.8494C8.35188 15.0578 8.6322 15.1656 8.91252 15.1656C9.01311 15.1656 9.12095 15.1512 9.22158 15.1225L13.685 13.7856C13.8575 13.7281 14.0156 13.6419 14.1378 13.5125L22.3244 5.32591C22.5257 5.12468 22.6406 4.85156 22.6406 4.56405C22.6406 4.27657 22.5257 4.00344 22.3244 3.80217L19.1978 0.675622Z" fill="#78A634"/>
<path d="M21.5625 10.4219C20.9669 10.4219 20.4844 10.9048 20.4844 11.5V18.6875C20.4844 19.6786 19.6782 20.4844 18.6875 20.4844H4.3125C3.32176 20.4844 2.51562 19.6786 2.51562 18.6875V4.3125C2.51562 3.32141 3.32176 2.51562 4.3125 2.51562H11.5C12.0956 2.51562 12.5781 2.03271 12.5781 1.4375C12.5781 0.842289 12.0956 0.359375 11.5 0.359375H4.3125C2.13274 0.359375 0.359375 2.13308 0.359375 4.3125V18.6875C0.359375 20.8669 2.13274 22.6406 4.3125 22.6406H18.6875C20.8673 22.6406 22.6406 20.8669 22.6406 18.6875V11.5C22.6406 10.9048 22.1581 10.4219 21.5625 10.4219Z" fill="#78A634"/>
</g>
<defs>
<clipPath id="clip0_12_321">
<rect width="23" height="23" fill="white"/>
</clipPath>
</defs>
</svg>
