<svg width="32" height="32" viewBox="0 0 32 32" fill="none" xmlns="http://www.w3.org/2000/svg">
<g clip-path="url(#clip0_12_321)">
<path d="M26.71 0.940001C26.12 0.349971 25.18 0.349971 24.59 0.940001L13.2 12.33C13.02 12.5 12.9 12.72 12.82 12.96L10.96 19.17C10.8 19.7 10.95 20.27 11.34 20.66C11.62 20.95 12.01 21.1 12.4 21.1C12.54 21.1 12.69 21.08 12.83 21.04L19.04 19.18C19.28 19.1 19.5 18.98 19.67 18.8L31.06 7.40997C31.34 7.13 31.5 6.75 31.5 6.34998C31.5 5.95002 31.34 5.57001 31.06 5.28998L26.71 0.940001Z" fill="#6A7CEC"/>
<path d="M30 14.5C29.1714 14.5 28.5 15.1719 28.5 16V26C28.5 27.3789 27.3784 28.5 26 28.5H6C4.62158 28.5 3.5 27.3789 3.5 26V6C3.5 4.62109 4.62158 3.5 6 3.5H16C16.8286 3.5 17.5 2.82812 17.5 2C17.5 1.17188 16.8286 0.5 16 0.5H6C2.96729 0.5 0.5 2.96777 0.5 6V26C0.5 29.0322 2.96729 31.5 6 31.5H26C29.0327 31.5 31.5 29.0322 31.5 26V16C31.5 15.1719 30.8286 14.5 30 14.5Z" fill="#6A7CEC"/>
</g>
<defs>
<clipPath id="clip0_12_321">
<rect width="32" height="32" fill="white"/>
</clipPath>
</defs>
</svg>
