<svg width="32" height="34" viewBox="0 0 32 34" fill="none" xmlns="http://www.w3.org/2000/svg">
<path d="M26.8992 10.3983L23.0622 6.51666C22.5615 6.0408 21.9052 5.76776 21.2184 5.74947C20.5316 5.73119 19.8621 5.96894 19.3373 6.4175L6.73398 19.1675C6.28133 19.6293 5.99949 20.2345 5.93577 20.8817L5.33361 26.7892C5.31475 26.9967 5.34136 27.2058 5.41156 27.4017C5.48176 27.5976 5.5938 27.7754 5.73972 27.9225C5.87057 28.0538 6.02575 28.1577 6.19637 28.2282C6.36699 28.2987 6.54968 28.3344 6.73398 28.3333H6.86001L12.6995 27.795C13.3392 27.7305 13.9375 27.4454 14.394 26.9875L26.9973 14.2375C27.4864 13.7147 27.7508 13.0171 27.7324 12.2974C27.7141 11.5778 27.4144 10.8949 26.8992 10.3983V10.3983ZM22.138 15.13L18.385 11.3333L21.1157 8.5L24.9387 12.3675L22.138 15.13Z" fill="#78A634"/>
</svg>
