<svg width="28" height="28" viewBox="0 0 28 28" fill="none" xmlns="http://www.w3.org/2000/svg">
<path d="M4.66669 14C4.66669 14.3094 4.7896 14.6062 5.0084 14.825C5.22719 15.0438 5.52393 15.1667 5.83335 15.1667H14.6884L12.005 17.8383C11.8957 17.9468 11.8089 18.0758 11.7496 18.218C11.6904 18.3602 11.6599 18.5127 11.6599 18.6667C11.6599 18.8207 11.6904 18.9732 11.7496 19.1154C11.8089 19.2575 11.8957 19.3866 12.005 19.495C12.1135 19.6044 12.2425 19.6912 12.3847 19.7504C12.5268 19.8096 12.6793 19.8401 12.8334 19.8401C12.9874 19.8401 13.1399 19.8096 13.282 19.7504C13.4242 19.6912 13.5532 19.6044 13.6617 19.495L18.3284 14.8283C18.4346 14.7174 18.5178 14.5866 18.5734 14.4433C18.69 14.1593 18.69 13.8407 18.5734 13.5567C18.5178 13.4135 18.4346 13.2826 18.3284 13.1717L13.6617 8.50501C13.5529 8.39623 13.4238 8.30994 13.2816 8.25107C13.1395 8.1922 12.9872 8.1619 12.8334 8.1619C12.6795 8.1619 12.5272 8.1922 12.3851 8.25107C12.2429 8.30994 12.1138 8.39623 12.005 8.50501C11.8962 8.61379 11.81 8.74293 11.7511 8.88505C11.6922 9.02718 11.6619 9.17951 11.6619 9.33334C11.6619 9.48718 11.6922 9.63951 11.7511 9.78164C11.81 9.92376 11.8962 10.0529 12.005 10.1617L14.6884 12.8333H5.83335C5.52393 12.8333 5.22719 12.9563 5.0084 13.1751C4.7896 13.3938 4.66669 13.6906 4.66669 14V14ZM19.8334 2.33334H8.16669C7.23843 2.33334 6.34819 2.70209 5.69181 3.35847C5.03544 4.01485 4.66669 4.90509 4.66669 5.83334V9.33334C4.66669 9.64276 4.7896 9.93951 5.0084 10.1583C5.22719 10.3771 5.52393 10.5 5.83335 10.5C6.14277 10.5 6.43952 10.3771 6.65831 10.1583C6.8771 9.93951 7.00002 9.64276 7.00002 9.33334V5.83334C7.00002 5.52392 7.12294 5.22718 7.34173 5.00839C7.56052 4.78959 7.85727 4.66668 8.16669 4.66668H19.8334C20.1428 4.66668 20.4395 4.78959 20.6583 5.00839C20.8771 5.22718 21 5.52392 21 5.83334V22.1667C21 22.4761 20.8771 22.7728 20.6583 22.9916C20.4395 23.2104 20.1428 23.3333 19.8334 23.3333H8.16669C7.85727 23.3333 7.56052 23.2104 7.34173 22.9916C7.12294 22.7728 7.00002 22.4761 7.00002 22.1667V18.6667C7.00002 18.3573 6.8771 18.0605 6.65831 17.8417C6.43952 17.6229 6.14277 17.5 5.83335 17.5C5.52393 17.5 5.22719 17.6229 5.0084 17.8417C4.7896 18.0605 4.66669 18.3573 4.66669 18.6667V22.1667C4.66669 23.0949 5.03544 23.9852 5.69181 24.6416C6.34819 25.2979 7.23843 25.6667 8.16669 25.6667H19.8334C20.7616 25.6667 21.6518 25.2979 22.3082 24.6416C22.9646 23.9852 23.3334 23.0949 23.3334 22.1667V5.83334C23.3334 4.90509 22.9646 4.01485 22.3082 3.35847C21.6518 2.70209 20.7616 2.33334 19.8334 2.33334Z" fill="#6A7CEC"/>
</svg>
