<svg width="20" height="20" viewBox="0 0 20 20" fill="none" xmlns="http://www.w3.org/2000/svg">
<path d="M9.99999 11.6667C10.1648 11.6667 10.3259 11.6178 10.463 11.5262C10.6 11.4347 10.7068 11.3045 10.7699 11.1522C10.833 11 10.8495 10.8324 10.8173 10.6708C10.7852 10.5091 10.7058 10.3606 10.5892 10.2441C10.4727 10.1275 10.3242 10.0482 10.1626 10.016C10.0009 9.98386 9.83336 10.0004 9.68109 10.0634C9.52881 10.1265 9.39867 10.2333 9.3071 10.3704C9.21553 10.5074 9.16666 10.6685 9.16666 10.8333C9.16666 11.0544 9.25445 11.2663 9.41073 11.4226C9.56701 11.5789 9.77898 11.6667 9.99999 11.6667ZM14.1667 11.6667C14.3315 11.6667 14.4926 11.6178 14.6296 11.5262C14.7667 11.4347 14.8735 11.3045 14.9366 11.1522C14.9996 11 15.0161 10.8324 14.984 10.6708C14.9518 10.5091 14.8725 10.3606 14.7559 10.2441C14.6394 10.1275 14.4909 10.0482 14.3292 10.016C14.1676 9.98386 14 10.0004 13.8478 10.0634C13.6955 10.1265 13.5653 10.2333 13.4738 10.3704C13.3822 10.5074 13.3333 10.6685 13.3333 10.8333C13.3333 11.0544 13.4211 11.2663 13.5774 11.4226C13.7337 11.5789 13.9456 11.6667 14.1667 11.6667ZM9.99999 15C10.1648 15 10.3259 14.9511 10.463 14.8596C10.6 14.768 10.7068 14.6378 10.7699 14.4856C10.833 14.3333 10.8495 14.1657 10.8173 14.0041C10.7852 13.8424 10.7058 13.694 10.5892 13.5774C10.4727 13.4609 10.3242 13.3815 10.1626 13.3494C10.0009 13.3172 9.83336 13.3337 9.68109 13.3968C9.52881 13.4598 9.39867 13.5667 9.3071 13.7037C9.21553 13.8407 9.16666 14.0019 9.16666 14.1667C9.16666 14.3877 9.25445 14.5996 9.41073 14.7559C9.56701 14.9122 9.77898 15 9.99999 15ZM14.1667 15C14.3315 15 14.4926 14.9511 14.6296 14.8596C14.7667 14.768 14.8735 14.6378 14.9366 14.4856C14.9996 14.3333 15.0161 14.1657 14.984 14.0041C14.9518 13.8424 14.8725 13.694 14.7559 13.5774C14.6394 13.4609 14.4909 13.3815 14.3292 13.3494C14.1676 13.3172 14 13.3337 13.8478 13.3968C13.6955 13.4598 13.5653 13.5667 13.4738 13.7037C13.3822 13.8407 13.3333 14.0019 13.3333 14.1667C13.3333 14.3877 13.4211 14.5996 13.5774 14.7559C13.7337 14.9122 13.9456 15 14.1667 15ZM5.83332 11.6667C5.99814 11.6667 6.15926 11.6178 6.2963 11.5262C6.43334 11.4347 6.54015 11.3045 6.60322 11.1522C6.6663 11 6.6828 10.8324 6.65064 10.6708C6.61849 10.5091 6.53912 10.3606 6.42258 10.2441C6.30603 10.1275 6.15755 10.0482 5.9959 10.016C5.83425 9.98386 5.66669 10.0004 5.51442 10.0634C5.36215 10.1265 5.232 10.2333 5.14043 10.3704C5.04886 10.5074 4.99999 10.6685 4.99999 10.8333C4.99999 11.0544 5.08779 11.2663 5.24407 11.4226C5.40035 11.5789 5.61231 11.6667 5.83332 11.6667ZM15.8333 3.33334H15V2.50001C15 2.27899 14.9122 2.06703 14.7559 1.91075C14.5996 1.75447 14.3877 1.66667 14.1667 1.66667C13.9456 1.66667 13.7337 1.75447 13.5774 1.91075C13.4211 2.06703 13.3333 2.27899 13.3333 2.50001V3.33334H6.66666V2.50001C6.66666 2.27899 6.57886 2.06703 6.42258 1.91075C6.2663 1.75447 6.05434 1.66667 5.83332 1.66667C5.61231 1.66667 5.40035 1.75447 5.24407 1.91075C5.08779 2.06703 4.99999 2.27899 4.99999 2.50001V3.33334H4.16666C3.50362 3.33334 2.86773 3.59673 2.39889 4.06557C1.93005 4.53441 1.66666 5.1703 1.66666 5.83334V15.8333C1.66666 16.4964 1.93005 17.1323 2.39889 17.6011C2.86773 18.0699 3.50362 18.3333 4.16666 18.3333H15.8333C16.4964 18.3333 17.1322 18.0699 17.6011 17.6011C18.0699 17.1323 18.3333 16.4964 18.3333 15.8333V5.83334C18.3333 5.1703 18.0699 4.53441 17.6011 4.06557C17.1322 3.59673 16.4964 3.33334 15.8333 3.33334V3.33334ZM16.6667 15.8333C16.6667 16.0544 16.5789 16.2663 16.4226 16.4226C16.2663 16.5789 16.0543 16.6667 15.8333 16.6667H4.16666C3.94564 16.6667 3.73368 16.5789 3.5774 16.4226C3.42112 16.2663 3.33332 16.0544 3.33332 15.8333V8.33334H16.6667V15.8333ZM16.6667 6.66667H3.33332V5.83334C3.33332 5.61232 3.42112 5.40036 3.5774 5.24408C3.73368 5.0878 3.94564 5.00001 4.16666 5.00001H15.8333C16.0543 5.00001 16.2663 5.0878 16.4226 5.24408C16.5789 5.40036 16.6667 5.61232 16.6667 5.83334V6.66667ZM5.83332 15C5.99814 15 6.15926 14.9511 6.2963 14.8596C6.43334 14.768 6.54015 14.6378 6.60322 14.4856C6.6663 14.3333 6.6828 14.1657 6.65064 14.0041C6.61849 13.8424 6.53912 13.694 6.42258 13.5774C6.30603 13.4609 6.15755 13.3815 5.9959 13.3494C5.83425 13.3172 5.66669 13.3337 5.51442 13.3968C5.36215 13.4598 5.232 13.5667 5.14043 13.7037C5.04886 13.8407 4.99999 14.0019 4.99999 14.1667C4.99999 14.3877 5.08779 14.5996 5.24407 14.7559C5.40035 14.9122 5.61231 15 5.83332 15Z" fill="#A6A6A6"/>
</svg>
