<svg width="122" height="122" viewBox="0 0 122 122" fill="none" xmlns="http://www.w3.org/2000/svg">
<path d="M110 40.823C109.941 40.3223 109.828 39.8291 109.663 39.3515V38.861C109.392 38.3006 109.031 37.7855 108.594 37.335V37.335L74.8438 4.635C74.3788 4.21108 73.8471 3.86154 73.2688 3.5995H72.7625L70.9625 3H36.875C32.3995 3 28.1072 4.72258 24.9426 7.7888C21.7779 10.855 20 15.0137 20 19.35V95.65C20 99.9863 21.7779 104.145 24.9426 107.211C28.1072 110.277 32.3995 112 36.875 112H93.125C97.6005 112 101.893 110.277 105.057 107.211C108.222 104.145 110 99.9863 110 95.65V41.15C110 41.15 110 41.15 110 40.823ZM76.25 21.5845L90.8188 35.7H76.25V21.5845ZM98.75 95.65C98.75 97.0954 98.1574 98.4817 97.1025 99.5037C96.0476 100.526 94.6168 101.1 93.125 101.1H36.875C35.3832 101.1 33.9524 100.526 32.8975 99.5037C31.8426 98.4817 31.25 97.0954 31.25 95.65V19.35C31.25 17.9046 31.8426 16.5183 32.8975 15.4963C33.9524 14.4742 35.3832 13.9 36.875 13.9H65V41.15C65 42.5954 65.5926 43.9817 66.6475 45.0037C67.7024 46.0258 69.1332 46.6 70.625 46.6H98.75V95.65Z" fill="#9F9F9F"/>
<circle cx="65" cy="86" r="5" fill="#FBA1A1"/>
<rect x="60" y="51" width="10" height="25" rx="5" fill="#FBA1A1"/>
</svg>
