<svg width="30" height="30" viewBox="0 0 30 30" fill="none" xmlns="http://www.w3.org/2000/svg">
<g clip-path="url(#clip0_47_72)">
<path d="M15 2.5C8.09375 2.5 2.5 8.09375 2.5 15C2.5 21.9063 8.09375 27.5 15 27.5C21.9063 27.5 27.5 21.9063 27.5 15C27.5 8.09375 21.9063 2.5 15 2.5ZM15 6.25C17.0687 6.25 18.75 7.93125 18.75 10C18.75 12.075 17.0687 13.75 15 13.75C12.9313 13.75 11.25 12.075 11.25 10C11.25 7.93125 12.9313 6.25 15 6.25ZM15 24C11.8687 24 9.11875 22.4 7.5 19.975C7.53125 17.4937 12.5062 16.125 15 16.125C17.4938 16.125 22.4625 17.4937 22.5 19.975C20.8813 22.4 18.1313 24 15 24Z" fill="#6A7CEC"/>
</g>
<defs>
<clipPath id="clip0_47_72">
<rect width="30" height="30" fill="white"/>
</clipPath>
</defs>
</svg>
